<svg width="108" height="32" viewBox="0 0 108 32" fill="none" xmlns="http://www.w3.org/2000/svg">
<g clip-path="url(#clip0_1204_11311)">
<path fill-rule="evenodd" clip-rule="evenodd" d="M32 32H26.9744H0V0H26.9744H32H107.637V32H32ZM32 1.02873V30.9712H106.59V1.02873H32ZM5.81813 26.1819V5.81813H26.1819V26.1819H5.81813ZM43.6024 19.8407V20.923C43.3276 20.7716 43.0645 20.6428 42.8141 20.5365C42.5629 20.4296 42.3106 20.3489 42.0566 20.2943C41.9123 20.267 41.768 20.2444 41.6232 20.2272C41.479 20.21 41.3318 20.2011 41.1804 20.2011C40.376 20.2011 39.7076 20.4558 39.1757 20.9639C38.6426 21.4726 38.3767 22.115 38.3767 22.8914C38.3767 23.6821 38.6397 24.3244 39.1651 24.8189C39.691 25.314 40.376 25.5615 41.2214 25.5615C41.4209 25.5615 41.6233 25.5443 41.8293 25.5099C42.0359 25.4755 42.2419 25.4238 42.4478 25.355C42.6544 25.2867 42.8604 25.2041 43.0664 25.108C43.273 25.0119 43.4754 24.8985 43.6749 24.7673V25.8602C43.3311 26.046 42.9584 26.1956 42.5565 26.3089C42.1546 26.4223 41.6785 26.4787 41.1288 26.4787C40.0911 26.4787 39.2767 26.2193 38.6861 25.7005C38.0948 25.1817 37.7 24.6094 37.5006 23.9843C37.4454 23.8128 37.4044 23.6424 37.3765 23.4738C37.3492 23.3058 37.3356 23.1426 37.3356 22.9847C37.3356 21.9126 37.6976 21.0263 38.423 20.3253C39.1478 19.6242 40.0704 19.274 41.1905 19.274C41.555 19.274 41.9278 19.3203 42.3089 19.4129C42.69 19.5055 43.1216 19.6515 43.6024 19.851V19.8408V19.8407ZM52.4908 19.3148L55.6346 26.386H54.6034L53.6655 24.3143H50.6766L49.7904 26.386H48.7592L51.7796 19.3148H52.4908ZM52.1198 20.8612L51.0685 23.4072H53.2536L52.1198 20.8612H52.1198ZM60.719 19.3563H62.9148C63.6842 19.3629 64.2493 19.5641 64.6102 19.9589C64.9712 20.3542 65.1516 20.8303 65.1516 21.3866C65.1516 21.9363 64.9605 22.4023 64.5794 22.7834C64.1977 23.1651 63.5981 23.3557 62.7807 23.3557H61.7294V26.3861H60.7191V19.3564L60.719 19.3563ZM61.7293 20.2634V22.4379H62.8733C63.2514 22.445 63.5517 22.3524 63.775 22.1601C63.9988 21.9678 64.1104 21.6959 64.1104 21.3456C64.1104 21.3249 64.1104 21.3058 64.1104 21.2886C64.1104 21.2714 64.1104 21.2542 64.1104 21.2406C64.0896 20.9984 63.9917 20.7751 63.8165 20.5709C63.6414 20.3661 63.3405 20.2635 62.9148 20.2635H61.7293V20.2634ZM71.4108 19.3563V26.386H70.4005V19.3563H71.4108ZM82.6078 19.3563V20.2634H80.1751V26.386H79.1654V20.2634H76.7327V19.3563H82.6078ZM89.8471 19.3148L92.9909 26.386H91.9598L91.0218 24.3143H88.0329L87.1467 26.386H86.1155L89.1359 19.3148H89.8471ZM89.476 20.8612L88.4248 23.4072H90.6099L89.4761 20.8612H89.476ZM99.1266 19.3563V25.479H102.301V26.386H98.1162V19.3563H99.1265H99.1266ZM93.0704 5.52075H95.5844L97.677 10.3807L99.7843 5.52075H102.298V15.4646H99.7706L99.7843 12.5997L99.9387 10.5915L99.8543 10.5773L98.5484 13.9906H96.8203L95.4864 10.5773L95.4158 10.5915L95.5844 12.5997V15.4646H93.0704V5.52075ZM39.8803 9.69276H43.7145V12.0382H39.8803V15.4646H37.3384V5.52075H44.2625V7.9083H39.8803V9.69276ZM50.2225 9.42563H54.2538V11.603H50.2225V13.0918H54.6046V15.4646H47.6811V5.52075H54.6046V7.88098H50.2225V9.42558V9.42563ZM62.041 10.1416C62.3028 10.1416 62.5224 10.0857 62.7005 9.97296C62.8786 9.86076 63.0116 9.72066 63.1006 9.55202C63.1903 9.38343 63.2342 9.20123 63.2342 9.00473C63.2342 8.80643 63.1903 8.62423 63.1006 8.45622C63.0116 8.28822 62.8786 8.14699 62.7005 8.03479C62.5224 7.92196 62.3028 7.86615 62.041 7.86615H60.5658V10.1416H62.041ZM60.5658 12.3047V15.4646H58.0234V5.52075H61.9989C62.5136 5.52075 62.9914 5.58248 63.4313 5.70354C63.8712 5.82523 64.257 6.01698 64.59 6.27936C64.923 6.54116 65.1843 6.88069 65.3766 7.29742C65.5683 7.71415 65.674 8.21283 65.693 8.79277C65.693 9.72061 65.5197 10.4484 65.1729 10.9779C64.8269 11.5063 64.3484 11.8642 63.7399 12.0524L66.451 15.4645H63.3185L61.0146 12.3047H60.5658L60.5658 12.3047ZM73.8863 10.1416C74.1498 10.1416 74.3695 10.0857 74.5469 9.97296C74.7256 9.86076 74.8586 9.72066 74.947 9.55202C75.0361 9.38343 75.0812 9.20123 75.0812 9.00473C75.0812 8.80643 75.0361 8.62423 74.947 8.45622C74.8586 8.28822 74.7256 8.14699 74.5469 8.03479C74.3695 7.92196 74.1498 7.86615 73.8863 7.86615H72.4123V10.1416H73.8863ZM72.4123 12.3047V15.4646H69.8698V5.52075H73.8447C74.3599 5.52075 74.8372 5.58248 75.2771 5.70354C75.7176 5.82523 76.104 6.01698 76.4364 6.27936C76.7689 6.54116 77.0313 6.88069 77.223 7.29742C77.4153 7.71415 77.5198 8.21283 77.5394 8.79277C77.5394 9.72061 77.366 10.4484 77.0194 10.9779C76.6727 11.5063 76.1954 11.8642 75.587 12.0524L78.2975 15.4645H75.1649L72.8616 12.3047H72.4123V12.3047ZM84.2581 12.1361C84.2581 12.4074 84.3281 12.6324 84.4688 12.8111C84.6089 12.9886 84.7852 13.1216 84.9948 13.2106C85.2055 13.2997 85.4329 13.3442 85.6762 13.3442C85.9202 13.3442 86.147 13.2979 86.3577 13.2041C86.5685 13.1097 86.7466 12.9767 86.892 12.804C87.0363 12.6306 87.1093 12.4075 87.1093 12.1362V5.52084H89.6512V12.1362C89.6512 12.7173 89.5366 13.2279 89.3074 13.6677C89.0783 14.107 88.7761 14.4732 88.4016 14.7629C88.0269 15.0539 87.6031 15.2711 87.13 15.416C86.6575 15.5614 86.1725 15.6338 85.6762 15.6338C85.1793 15.6338 84.6926 15.5614 84.2153 15.416C83.738 15.2711 83.3147 15.0539 82.9444 14.7629C82.5745 14.4733 82.2771 14.107 82.0521 13.6677C81.8283 13.2279 81.7161 12.7173 81.7161 12.1362V5.52084H84.258V12.1362L84.2581 12.1361Z" fill="#101923"/>
</g>
<defs>
<clipPath id="clip0_1204_11311">
<rect width="107.637" height="32" fill="white"/>
</clipPath>
</defs>
</svg>
