<svg width="56" height="56" viewBox="0 0 56 56" fill="none" xmlns="http://www.w3.org/2000/svg">
<path d="M18.4047 53.9999C15.466 47.5741 15.7963 33.0465 15.7963 33.0465L47.8109 8.22803C46.9081 17.0295 32.7422 51.5306 18.4047 53.9999Z" fill="#91A0FF" stroke="#101923" stroke-width="1.5" stroke-linecap="round"/>
<path d="M4.4065 25.8786C3.61526 25.1701 3.67499 24.1102 4.50426 23.5235C8.59256 20.6312 17.0437 15.9932 26.0714 11.8221C35.1104 7.64575 44.6136 3.99102 50.8175 3.0072C51.9353 2.82995 52.8965 3.71886 52.8229 4.94082C52.4419 11.2648 51.0046 20.8671 49.1176 29.8755C48.1747 34.3766 47.122 38.7177 46.0368 42.4166C44.9477 46.1291 43.839 49.1479 42.7955 51.0338C42.4221 51.7088 41.5566 51.9336 40.7123 51.4554C37.7134 49.7569 31.019 45.7369 20.2957 38.1024C11.1789 31.6116 6.60041 27.8432 4.4065 25.8786Z" fill="#91A0FF" stroke="#101923" stroke-width="1.5"/>
<path d="M47.6244 8.2091C46.3827 6.96723 17.4817 30.4587 15.1692 35.3138C15.1692 35.3138 15.0727 53.4755 18.4043 53.9998C20.2293 53.9998 23.5955 44.191 24.234 42.2798C24.3055 42.0658 24.4039 41.8757 24.5406 41.6963C31.7754 32.2078 48.8547 9.43945 47.6244 8.2091Z" fill="#4A5FE5" stroke="#101923" stroke-width="1.5"/>
</svg>
