<svg width="17" height="16" viewBox="0 0 17 16" fill="none" xmlns="http://www.w3.org/2000/svg">
<path d="M11.583 13.6667H4.91634C2.91634 13.6667 1.58301 12.6667 1.58301 10.3334V5.66671C1.58301 3.33337 2.91634 2.33337 4.91634 2.33337H11.583C13.583 2.33337 14.9163 3.33337 14.9163 5.66671V10.3334C14.9163 12.6667 13.583 13.6667 11.583 13.6667Z" stroke="white" stroke-width="1.5" stroke-miterlimit="10" stroke-linecap="round" stroke-linejoin="round"/>
<path d="M8.25 10C9.35457 10 10.25 9.10457 10.25 8C10.25 6.89543 9.35457 6 8.25 6C7.14543 6 6.25 6.89543 6.25 8C6.25 9.10457 7.14543 10 8.25 10Z" stroke="white" stroke-width="1.5" stroke-miterlimit="10" stroke-linecap="round" stroke-linejoin="round"/>
<path d="M12.917 4.66663H10.917" stroke="white" stroke-width="1.5" stroke-miterlimit="10" stroke-linecap="round" stroke-linejoin="round"/>
<path d="M5.58301 11.3334H3.58301" stroke="white" stroke-width="1.5" stroke-miterlimit="10" stroke-linecap="round" stroke-linejoin="round"/>
</svg>
