<svg width="17" height="16" viewBox="0 0 17 16" fill="none" xmlns="http://www.w3.org/2000/svg">
<path d="M15.3963 12.22C15.3963 12.46 15.343 12.7067 15.2297 12.9467C15.1163 13.1867 14.9697 13.4134 14.7763 13.6267C14.4497 13.9867 14.0897 14.2467 13.683 14.4134C13.283 14.58 12.8497 14.6667 12.383 14.6667C11.703 14.6667 10.9763 14.5067 10.2097 14.18C9.44301 13.8534 8.67634 13.4134 7.91634 12.86C7.14967 12.3 6.42301 11.68 5.72967 10.9934C5.04301 10.3 4.42301 9.57337 3.86967 8.81337C3.32301 8.05337 2.88301 7.29337 2.56301 6.54004C2.24301 5.78004 2.08301 5.05337 2.08301 4.36004C2.08301 3.90671 2.16301 3.47337 2.32301 3.07337C2.48301 2.66671 2.73634 2.29337 3.08967 1.96004C3.51634 1.54004 3.98301 1.33337 4.47634 1.33337C4.66301 1.33337 4.84967 1.37337 5.01634 1.45337C5.18967 1.53337 5.34301 1.65337 5.46301 1.82671L7.00967 4.00671C7.12967 4.17337 7.21634 4.32671 7.27634 4.47337C7.33634 4.61337 7.36967 4.75337 7.36967 4.88004C7.36967 5.04004 7.32301 5.20004 7.22967 5.35337C7.14301 5.50671 7.01634 5.66671 6.85634 5.82671L6.34967 6.35337C6.27634 6.42671 6.24301 6.51337 6.24301 6.62004C6.24301 6.67337 6.24967 6.72004 6.26301 6.77337C6.28301 6.82671 6.30301 6.86671 6.31634 6.90671C6.43634 7.12671 6.64301 7.41337 6.93634 7.76004C7.23634 8.10671 7.55634 8.46004 7.90301 8.81337C8.26301 9.16671 8.60967 9.49337 8.96301 9.79337C9.30967 10.0867 9.59634 10.2867 9.82301 10.4067C9.85634 10.42 9.89634 10.44 9.94301 10.46C9.99634 10.48 10.0497 10.4867 10.1097 10.4867C10.223 10.4867 10.3097 10.4467 10.383 10.3734L10.8897 9.87337C11.0563 9.70671 11.2163 9.58004 11.3697 9.50004C11.523 9.40671 11.6763 9.36004 11.843 9.36004C11.9697 9.36004 12.103 9.38671 12.2497 9.44671C12.3963 9.50671 12.5497 9.59337 12.7163 9.70671L14.923 11.2734C15.0963 11.3934 15.2163 11.5334 15.2897 11.7C15.3563 11.8667 15.3963 12.0334 15.3963 12.22Z" stroke="white" stroke-width="1.5" stroke-miterlimit="10"/>
</svg>
